<svg width="32" height="32" viewBox="0 0 32 32" fill="none" xmlns="http://www.w3.org/2000/svg">
<style>
    /* Default (dark) palette: bright accent + light fg, readable on dark browser chrome. */
    .accent { fill: #00ffc2; }
    .fg { fill: #e5e9f0; }

    /* When the browser/OS is in light mode, recolor for contrast on light chrome. */
    @media (prefers-color-scheme: light) {
    .accent { fill: #008f6b; }
    .fg { fill: #1e222a; }
    }
</style>
<path class="accent" d="M 4.375 27.625 L 4.375 4.375 L 8.929688 4.375 L 8.929688 6.917969 L 6.566406 6.917969 L 6.566406 25.089844 L 8.929688 25.089844 L 8.929688 27.625 Z M 4.375 27.625"/>
<path class="accent" d="M 27.625 4.375 L 27.625 27.625 L 23.070312 27.625 L 23.070312 25.089844 L 25.433594 25.089844 L 25.433594 6.917969 L 23.070312 6.917969 L 23.070312 4.375 Z M 27.625 4.375"/>
<path class="fg" d="M 10.675781 23.25 L 10.675781 8.75 L 13.003906 8.75 L 13.003906 14.886719 L 18.964844 14.886719 L 18.964844 8.75 L 21.300781 8.75 L 21.300781 23.25 L 18.964844 23.25 L 18.964844 17.089844 L 13.003906 17.089844 L 13.003906 23.25 Z M 10.675781 23.25"/>
</svg>